<svg xmlns="http://www.w3.org/2000/svg" viewBox="0 0 264.36 143.57"><defs><style>.cls-1{fill:#d88d87;}.cls-2{fill:#1d3244;}.cls-3{fill:#4d4d6d;}.cls-4{fill:#ffb692;}.cls-5{fill:#add4ea;}.cls-6{fill:#2280bf;}.cls-7{fill:#0e5ea0;}.cls-8{fill:#80b7ce;}.cls-9{fill:#205c9e;}.cls-10{fill:#f79c97;}.cls-11{fill:#54321a;}.cls-12{fill:#aa635f;}.cls-13{fill:#252538;}.cls-14{fill:#8c5c53;}</style></defs><g id="Layer_2" data-name="Layer 2"><g id="OBJECTS"><path class="cls-1" d="M38.12,124H24.41L14.16,105a7.06,7.06,0,0,1,5.93-10.45H50.68v12.67l-19.09-1L34,119.18A6.1,6.1,0,0,1,38.12,124Z"/><path class="cls-2" d="M111.41,122.76l-.63,0-69.74-3-.5-28,47.2.59L55.91,25,82.48,12.42l42.21,89.37a14.7,14.7,0,0,1-13.28,21Z"/><circle class="cls-3" cx="76.7" cy="35.66" r="35.66" transform="translate(-2.75 64.68) rotate(-45)"/><path class="cls-4" d="M24.82,143.57H11.11L.86,124.65A7.05,7.05,0,0,1,6.8,114.21H37.39v12.68l-19.09-1,2.44,12.93A6.1,6.1,0,0,1,24.82,143.57Z"/><path class="cls-1" d="M28.52,114.2h-2l-1.43,12,7.38.39Z"/><path class="cls-3" d="M98.12,142.38l-.64,0-68.76-3.55L27.33,112l47.11,0L42.62,44.59,69.18,32l42.22,89.38a14.69,14.69,0,0,1-13.28,21Z"/><path class="cls-1" d="M219.62,115.82c-12.73-2.28-14.25-2.28-14.25-2.28l-9-7.4-14.47,9.68,7.94,10.05h44.87S232.35,118.11,219.62,115.82Z"/><path class="cls-5" d="M181.49,121.89,143.3,73a12.49,12.49,0,0,1,5.34-19.33L175,43.18a12.48,12.48,0,0,1,16.15,7.13h0A12.49,12.49,0,0,1,184,66.46l-10.7,4.41,27.83,35.65Z"/><rect class="cls-6" x="173.52" y="105.12" width="27.88" height="7.62" transform="translate(-27.72 135.51) rotate(-37.2)"/><path class="cls-4" d="M185.31,136.07c-12.73-2.29-15.27-4.83-15.27-4.83l-9-7.4-14.47,9.68,7.94,10h44.87S198,138.35,185.31,136.07Z"/><path class="cls-1" d="M191.72,142.49a23.32,23.32,0,0,0-2.52-1c-1.7-.56-3.43-1-5.16-1.37-3.47-.74-7-1.29-10.48-1.69h0l.13,0-3.74-.9,3.36,1.88.14,0h0c3.47.42,6.94,1,10.35,1.74a49.7,49.7,0,0,1,5,1.37,19.74,19.74,0,0,1,2.41,1h2.21A8.41,8.41,0,0,0,191.72,142.49Z"/><path class="cls-1" d="M175,136.07a35,35,0,0,0,6.31,1.6c2.11.43,4.21.93,6.26,1.53a43.91,43.91,0,0,1,6,2.12,16,16,0,0,1,3.75,2.25h1.76a9.49,9.49,0,0,0-2-1.86,16.74,16.74,0,0,0-2.93-1.67,40.07,40.07,0,0,0-6.23-2.19c-2.12-.56-4.26-1-6.41-1.38A20.19,20.19,0,0,0,175,136.07Z"/><polygon class="cls-1" points="164.5 126.7 162.78 125.29 156.85 126.63 146.54 133.53 152.8 141.44 164.5 126.7"/><path class="cls-6" d="M81.29,75a8.19,8.19,0,0,1-5.57-6.75A74.14,74.14,0,0,1,95.7,8a8.23,8.23,0,0,1,8.57-2.13c22.41,7.44,36.76,15,57.25,25.26C189.12,45,201.17,59.9,197.81,84.24h0a27.88,27.88,0,0,1-35.25,17.67Z"/><polygon class="cls-7" points="158.16 80.35 145.84 91.45 130.44 85.86 158.16 80.35"/><path class="cls-7" d="M179.73,97.37C114,76.66,79.07,67.67,76.47,45.45a75.14,75.14,0,0,0-.75,22.75A8.19,8.19,0,0,0,81.29,75l81.27,27a27.79,27.79,0,0,0,23.14-2.56C183.83,98.69,181.85,98,179.73,97.37Z"/><path class="cls-5" d="M146.17,139.59,108.2,91a13,13,0,0,1-2.86-8.47,12.5,12.5,0,0,1,8-11.14l33.07-12.8a12.48,12.48,0,0,1,16.15,7.13h0a12.48,12.48,0,0,1-7.13,16.15L138,88.58l27.84,35.64Z"/><path class="cls-8" d="M146.17,139.59l6.52-5.1c-12.26-15.88-27.46-35.62-32.78-42.82-6.76-9.13-10.12-14.57-4.74-21l-1.86.72a12.5,12.5,0,0,0-8,11.14A13,13,0,0,0,108.2,91Z"/><rect class="cls-6" x="137.41" y="122.48" width="27.88" height="7.62" transform="translate(-45.56 117.21) rotate(-37.2)"/><rect class="cls-9" x="182.79" y="72.29" width="17.44" height="35.03" transform="translate(78.21 -88.81) rotate(32.49)"/><path class="cls-4" d="M190.88,107.15h0c-.95-5.44,2.57-19,13.11-23.66l25.93-7.8a23.07,23.07,0,0,1,26.67,18.8l.34,2a23.06,23.06,0,0,1-18.8,26.67l-30.59,1.72C194.65,125.12,192.22,114.89,190.88,107.15Z"/><path class="cls-1" d="M213.47,124.7h0a4.7,4.7,0,0,0,5.16,4.21l7.61-.76a4.72,4.72,0,0,0,4.21-5.17h0a4.71,4.71,0,0,0-5.16-4.21l-7.6.77A4.71,4.71,0,0,0,213.47,124.7Z"/><path class="cls-10" d="M215.88,121.94h0a1.25,1.25,0,0,0,1.37,1.11l8.8-.89a1.24,1.24,0,0,0,1.11-1.36h0a1.24,1.24,0,0,0-1.36-1.11l-8.8.89A1.24,1.24,0,0,0,215.88,121.94Z"/><path class="cls-11" d="M240.58,112.51A18.06,18.06,0,0,1,230,100.62s-9.11,1.71-12.49-4.43l9.7-2.73-4.8-3.8s-11.8.41-15.3-8.71l25.33-6.39Z"/><circle class="cls-1" cx="221.69" cy="91.49" r="6.5"/><path class="cls-12" d="M225.14,91.49A3.45,3.45,0,1,1,221.69,88,3.45,3.45,0,0,1,225.14,91.49Z"/><path class="cls-5" d="M264.09,94.75h0A25.62,25.62,0,0,0,235,73.12l-3.76.7,7.43,50.69,3.76-.7A25.61,25.61,0,0,0,264.09,94.75Z"/><path class="cls-8" d="M263.79,103.85c-5.6,2.66-14.9,4.23-28.42-2.07l3.33,22.73,3.76-.7A25.6,25.6,0,0,0,263.79,103.85Z"/><rect class="cls-6" x="234.11" y="72.43" width="3.8" height="52.95" transform="translate(-11.85 35.27) rotate(-8.34)"/><path class="cls-13" d="M234.12,106.14l2.88,5.28a2.39,2.39,0,0,1-4.19,2.29l-2.88-5.28a2.39,2.39,0,1,1,4.19-2.29Z"/><path class="cls-14" d="M208,110.24l-.7-.28c-.17.44-2.22,6.42,2.68,13.5l.19-.95.78.16-.55,2.69-.53-.7a23.85,23.85,0,0,1-1.54-2.32c-3.9-6.78-2-12.17-1.77-12.68l-1-.42A1.49,1.49,0,0,1,208,110.24Z"/><path class="cls-13" d="M223.38,108.36a16.85,16.85,0,0,0-.19,4.6,10.6,10.6,0,0,0,.47,2.12c.2.73.52,1.42.79,2.26a5.19,5.19,0,0,1-2.73-4.23,6.12,6.12,0,0,1,.3-2.59A5.26,5.26,0,0,1,223.38,108.36Z"/></g></g></svg>